<svg xmlns="http://www.w3.org/2000/svg" viewBox="0 0 65 40" fill="white"><path fill-rule="evenodd" clip-rule="evenodd" d="M39.83 6.25124C52.6846 0.32221 62.1915 -1.41783 64.0585 1.82595C66.1616 5.47789 57.878 14.3499 43.9289 23.4153L43.8216 23.4798L43.4997 23.1361L43.6499 23.0502C54.8092 15.5315 61.4404 8.27055 59.7665 5.37048C58.393 2.98598 51.2897 4.03859 41.7185 8.09869L41.6327 8.14165L41.5683 8.07721C41.0532 7.54016 40.4524 7.00311 39.8086 6.50902L39.6154 6.35865L39.83 6.25124ZM5.8157 36.5623C6.95309 38.5387 11.9318 38.195 19.1639 35.6816L19.2712 35.6386L19.5502 36.0253L19.3785 36.0897C9.97897 39.6128 3.71261 40.1283 2.23186 37.5505C0.965709 35.3593 3.3907 31.2563 9.05618 26.0361L9.12056 25.9717L9.2064 26.0147C9.2064 26.0147 10.215 26.4658 10.2794 26.4873L11.5456 26.9599L11.3739 27.1102C6.84579 31.3852 4.80707 34.8223 5.8157 36.5623Z"/><path fill-rule="evenodd" clip-rule="evenodd" d="M22.4688 1.0741C10.0863 1.0741 0 7.34684 0 15.0374C0 22.7279 10.0863 29.0007 22.4688 29.0007C34.8513 29.0007 44.9375 22.7279 44.9375 15.0374C44.9375 7.34684 34.8727 1.0741 22.4688 1.0741ZM18.6059 20.5153C18.8205 20.5153 23.7778 20.5153 23.971 20.5153C24.0354 20.7086 25.7736 26.9814 25.8595 27.3036C24.7435 27.454 23.6062 27.5399 22.4688 27.5399C20.5588 27.5399 18.6703 27.3251 16.8462 26.9384C16.9321 26.6162 18.5416 20.7301 18.6059 20.5153ZM19.1424 18.539C19.2283 18.2167 21.0309 11.6647 21.267 10.784C21.5031 11.6647 23.3272 18.1952 23.4345 18.539C23.0696 18.539 19.4643 18.539 19.1424 18.539ZM21.2885 2.59932C21.1812 2.98599 17.2325 17.3574 16.9964 18.1952C16.7604 17.3574 13.0478 4.61862 12.9619 4.38232C15.4942 3.32971 18.3484 2.72821 21.2885 2.59932ZM23.3057 2.57784C26.2672 2.66376 29.1429 3.24378 31.6966 4.25343C31.6322 4.51121 28.1128 17.3145 27.8767 18.1738C27.5977 17.3145 23.413 2.96451 23.3057 2.57784ZM30.0013 18.539C30.0871 18.2167 31.8683 11.6647 32.1044 10.784C32.3404 11.6647 34.1645 18.1952 34.2718 18.539C33.9285 18.539 30.3446 18.539 30.0013 18.539ZM29.0141 22.1694C29.0356 22.105 29.4004 20.7086 29.4648 20.5368C29.6794 20.5368 34.6152 20.5368 34.8083 20.5368C34.8727 20.7301 35.6238 23.4798 35.6882 23.6731C34.1216 24.7902 32.276 25.6925 30.2373 26.3369C30.1515 26.0577 29.0356 22.2339 29.0141 22.1694ZM39.2506 20.0212C39.0789 19.4197 35.3878 6.78831 35.1732 6.05792C38.7355 8.42094 40.7743 11.6647 40.7743 15.0374C40.7743 16.7774 40.2592 18.453 39.2506 20.0212ZM14.6573 26.3154C11.6958 25.3702 9.16348 23.888 7.33937 22.062C7.38229 21.9116 7.70419 20.7086 7.76857 20.5368C7.98317 20.5368 12.8761 20.5368 13.0907 20.5368C13.1336 20.7301 14.55 25.8858 14.6573 26.3154ZM8.28361 18.539C8.36945 18.2167 10.1506 11.6862 10.4082 10.8054C10.6442 11.6862 12.4469 18.2167 12.5327 18.539C12.1894 18.539 8.62698 18.539 8.28361 18.539ZM9.421 6.3157C9.22786 7.04609 5.83716 19.3553 5.66548 19.9568C4.67831 18.3886 4.16327 16.7345 4.16327 15.0374C4.16327 11.7506 6.0303 8.65724 9.421 6.3157Z"/></svg>