<svg xmlns="http://www.w3.org/2000/svg" width="400" height="150" viewBox="0 0 400 150"><rect width="100%" height="100%" fill="#DDDDDD"/><path fill="#999999" d="m98.995 59.67-1.37 2.61q-.25.43-.52.62-.28.2-.69.2-.43 0-.93-.32-.51-.32-1.2-.71-.7-.39-1.63-.7-.94-.32-2.21-.32-1.15 0-2.01.28-.86.27-1.44.76-.59.5-.87 1.18-.29.69-.29 1.51 0 1.04.58 1.74.59.7 1.55 1.19.97.49 2.2.88t2.52.83 2.52 1.03q1.23.58 2.19 1.47.97.9 1.55 2.19t.58 3.13q0 2.01-.68 3.77-.69 1.75-2.01 3.05t-3.23 2.05-4.37.75q-1.41 0-2.78-.28-1.38-.28-2.64-.79t-2.37-1.23q-1.1-.72-1.96-1.6l1.61-2.64q.21-.29.54-.48.33-.2.69-.2.52 0 1.11.42.6.42 1.42.93.82.52 1.91.94 1.1.42 2.64.42 2.35 0 3.65-1.12 1.29-1.12 1.29-3.21 0-1.17-.59-1.9-.58-.74-1.54-1.24-.97-.51-2.2-.86-1.23-.34-2.5-.75t-2.5-.99q-1.23-.57-2.19-1.49-.97-.93-1.55-2.31-.59-1.38-.59-3.41 0-1.62.65-3.16t1.88-2.73 3.03-1.9q1.8-.72 4.14-.72 2.63 0 4.84.82t3.77 2.29m11.54 27.19q-2.74 0-4.21-1.55t-1.47-4.27V69.29h-2.15q-.41 0-.7-.27-.28-.26-.28-.8v-2.01l3.38-.55 1.07-5.74q.1-.41.39-.63.28-.23.73-.23h2.63v6.62h5.61v3.61h-5.61v11.4q0 .98.48 1.53.48.56 1.32.56.47 0 .79-.11.32-.12.55-.24.24-.12.42-.24.19-.11.37-.11.23 0 .37.11.15.12.31.34l1.52 2.46q-1.11.93-2.54 1.4-1.44.47-2.98.47m7.51-3.12q0-.63.23-1.21.24-.57.65-.98t.98-.66q.58-.24 1.23-.24.66 0 1.22.24.56.25.99.66.42.41.66.98.25.58.25 1.21 0 .66-.25 1.22-.24.57-.66.98-.43.41-.99.64-.56.24-1.22.24-.65 0-1.23-.24-.57-.23-.98-.64t-.65-.98q-.23-.56-.23-1.22m32.53-26.85v19.1q0 2.5-.62 4.51-.61 2.01-1.83 3.43-1.22 1.41-3.04 2.17-1.83.76-4.25.76-1.11 0-2.17-.14-1.07-.13-2.24-.42.07-.82.15-1.64t.14-1.64q.06-.45.36-.72.3-.28.85-.28.35 0 .91.14.57.15 1.43.15 1.17 0 2.07-.34t1.5-1.08q.61-.74.92-1.91.3-1.18.3-2.86V56.89zm18.57 8.61h5.07v21.03h-3.1q-1 0-1.27-.92l-.35-1.68q-1.29 1.31-2.85 2.12t-3.67.81q-1.72 0-3.04-.59-1.32-.58-2.23-1.65-.9-1.06-1.36-2.53-.46-1.46-.46-3.23V65.5h5.06v13.36q0 1.93.89 2.99.9 1.05 2.68 1.05 1.31 0 2.46-.58 1.15-.59 2.17-1.61zm23.27 14.8v-9.43q-.86-1.05-1.88-1.48-1.01-.43-2.18-.43-1.15 0-2.07.43t-1.58 1.3q-.65.88-1 2.22t-.35 3.16q0 1.85.3 3.13.29 1.28.85 2.09.55.81 1.35 1.17t1.78.36q1.58 0 2.69-.66 1.11-.65 2.09-1.86m0-24.23h5.06v30.46h-3.09q-1.01 0-1.27-.92l-.43-2.03q-1.27 1.45-2.93 2.36-1.65.9-3.84.9-1.72 0-3.16-.72-1.43-.72-2.47-2.08-1.03-1.36-1.6-3.37-.56-2.01-.56-4.6 0-2.33.64-4.34.63-2.01 1.82-3.49 1.19-1.47 2.85-2.3t3.73-.83q1.76 0 3.02.55 1.25.55 2.23 1.5zm14.06 17.52h9.56q0-.98-.28-1.85t-.83-1.53q-.55-.65-1.41-1.03-.85-.38-1.97-.38-2.2 0-3.46 1.25t-1.61 3.54m12.92 3.06h-13.02q.12 1.62.57 2.8.46 1.18 1.19 1.94.74.77 1.76 1.15 1.01.38 2.24.38t2.12-.29q.89-.28 1.56-.63t1.17-.64q.5-.28.97-.28.64 0 .95.47l1.45 1.84q-.84.99-1.88 1.65-1.05.67-2.19 1.07t-2.31.56q-1.18.17-2.29.17-2.19 0-4.08-.73t-3.28-2.15q-1.39-1.43-2.19-3.53t-.8-4.87q0-2.15.69-4.05.7-1.89 2-3.3 1.3-1.4 3.18-2.22t4.23-.82q1.99 0 3.67.63 1.68.64 2.89 1.86t1.9 2.99q.69 1.78.69 4.05 0 1.15-.25 1.55t-.94.4m21.26 5.33h11.85v4.55h-17.37V56.89h5.52zm24.29-16.81q2.34 0 4.25.76 1.92.76 3.28 2.15 1.37 1.39 2.1 3.4.74 2.01.74 4.49 0 2.5-.74 4.51-.73 2.01-2.1 3.43-1.36 1.41-3.28 2.17-1.91.76-4.25.76-2.36 0-4.29-.76-1.92-.76-3.29-2.17-1.36-1.42-2.11-3.43t-.75-4.51q0-2.48.75-4.49t2.11-3.4q1.37-1.39 3.29-2.15 1.93-.76 4.29-.76m0 17.77q2.62 0 3.88-1.76t1.26-5.17q0-3.4-1.26-5.18-1.26-1.79-3.88-1.79-2.67 0-3.95 1.8-1.28 1.79-1.28 5.17 0 3.39 1.28 5.16t3.95 1.77m21.93-7.44q.95 0 1.64-.26.7-.25 1.16-.7t.7-1.09q.23-.63.23-1.39 0-1.56-.93-2.47-.93-.92-2.8-.92-1.86 0-2.79.92-.94.91-.94 2.47 0 .73.24 1.37.23.64.7 1.1.46.46 1.16.71.71.26 1.63.26m5.72 11.97q0-.61-.37-1-.36-.39-1-.61-.64-.21-1.49-.31-.85-.11-1.8-.16t-1.97-.09q-1.01-.04-1.98-.16-.84.47-1.36 1.1-.52.64-.52 1.48 0 .55.27 1.03.28.49.89.83.6.35 1.56.55.97.19 2.36.19 1.42 0 2.44-.21 1.03-.22 1.69-.6.67-.38.98-.9.3-.52.3-1.14m-1-21.26h6.05v1.89q0 .9-1.09 1.11l-1.89.35q.43 1.08.43 2.37 0 1.56-.62 2.82-.63 1.26-1.73 2.15-1.11.88-2.62 1.36-1.5.48-3.25.48-.61 0-1.19-.06-.57-.06-1.12-.17-.99.6-.99 1.34 0 .63.59.93.58.3 1.55.42.96.12 2.19.15t2.52.14q1.29.1 2.52.36 1.23.25 2.2.81.96.55 1.54 1.5.59.96.59 2.45 0 1.4-.69 2.71t-1.99 2.34q-1.3 1.02-3.2 1.65-1.89.62-4.31.62-2.38 0-4.14-.46-1.77-.46-2.93-1.23-1.17-.77-1.75-1.77-.57-1.01-.57-2.1 0-1.47.89-2.47.89-.99 2.45-1.58-.84-.43-1.33-1.15t-.49-1.89q0-.47.17-.97.18-.5.51-1 .34-.49.85-.93.52-.44 1.21-.79-1.6-.86-2.51-2.29-.91-1.44-.91-3.37 0-1.55.63-2.81.62-1.27 1.74-2.16t2.64-1.36q1.53-.47 3.33-.47 1.36 0 2.55.27 1.18.28 2.17.81m18.55-1.04q2.34 0 4.26.76 1.91.76 3.28 2.15 1.36 1.39 2.1 3.4.73 2.01.73 4.49 0 2.5-.73 4.51-.74 2.01-2.1 3.43-1.37 1.41-3.28 2.17-1.92.76-4.26.76-2.36 0-4.28-.76-1.93-.76-3.29-2.17-1.37-1.42-2.11-3.43-.75-2.01-.75-4.51 0-2.48.75-4.49.74-2.01 2.11-3.4 1.36-1.39 3.29-2.15 1.92-.76 4.28-.76m0 17.77q2.63 0 3.89-1.76t1.26-5.17q0-3.4-1.26-5.18-1.26-1.79-3.89-1.79-2.66 0-3.95 1.8-1.28 1.79-1.28 5.17 0 3.39 1.28 5.16 1.29 1.77 3.95 1.77"/></svg>