<?xml version="1.0" encoding="UTF-8"?> <svg xmlns="http://www.w3.org/2000/svg" id="Layer_1" width="150" height="150" version="1.1" viewBox="0 0 150 150"><defs><style> .st0 { fill: #fafafa; } </style></defs><path class="st0" d="M2.19,118.03l-.64-7.25,28.71-3.13c-.18,2.72-4.87,2.92-4.87,2.92-1.66.18-13.53,1.43-13.77,1.45l1.33,14.78c.08.94.45,1.23,1.43,1.13l1.56-.18.2,2.29-9.85,1.13-.2-2.29,1.61-.18c.97-.1,1.29-.49,1.19-1.43l-1.33-14.78c-2.37.27-3.04,1.16-3.19,3.04,0,0-.03,2.42-2.22,2.49"></path><path class="st0" d="M18.41,120.02l.29,3.29c.05.64.32.87.97.79l.72-.08.13,1.56-6.2.67-.13-1.56.87-.1c.67-.08.89-.35.84-.99l-.67-7.78c-.07-.67-.3-.87-.97-.79l-.89.08-.13-1.58,6.2-.67.13,1.6-.72.08c-.67.08-.89.32-.84,1.01l.24,2.76,4.49-.49-.24-2.76c-.07-.67-.32-.87-.97-.81l-.72.08-.13-1.58,6.2-.67.13,1.6-.87.1c-.67.07-.89.32-.84,1.01l.67,7.78c.05.66.3.87.97.81l.87-.08.13,1.56-6.2.67-.13-1.56.72-.08c.67-.08.89-.35.84-.99l-.29-3.29-4.49.49h0l.02-.07h0Z"></path><path class="st0" d="M29.2,118.32c-.1.42-.35,1.04-.32,1.5.02.29.15.32.72.29l.37-.03.08,1.19-3.73.32-.08-1.19c.67-.07,1.01-.15,1.24-.92.13-.44.3-.86.44-1.31l1.8-6.4,1.9-.15,3.06,6.59c.5,1.04.64,1.43,1.7,1.34l.08,1.19-4.66.4-.08-1.19.44-.03c.5-.03.72-.18.71-.44-.03-.4-.37-1.01-.54-1.38l-3.13.27h0v-.05ZM30.38,113.85l-.86,3.21,2.25-.18-1.4-3.03h.01Z"></path><path class="st0" d="M64.95,113.04c0-1.01.94-1.71,2.29-1.71,1.06,0,2.13.62,2.71,1.53.34.55.42.91.52,1.83h1.58v-4.61h-1.33l-.25.86c-.89-.89-1.93-1.26-3.31-1.26-2.81,0-4.59,1.66-4.57,4.29,0,2.54,1.41,3.24,3.35,3.71l1.71.45c2.03.5,2.32.74,2.32,1.7s-.87,1.66-2.15,1.66-2.44-.59-3.01-1.43c-.32-.47-.4-.72-.67-1.93h-1.6v3.14c-.81-.02-2.08-.15-2.59-.76-.13-.18-.25-.32-.35-.47l-3.06-4.96,1.85-1.88c1.08-1.08,1.53-1.4,2.87-1.41l-.03-1.65-6.02.17.03,1.65,1.03-.03c.37,0,.5.07.52.29,0,.18-.1.37-.32.59l-3.73,3.6-.08-3.51c0-.67.22-.91.89-.92h.72l-.03-1.61-6.22.2h-.02l-4.91.29.07,1.6.79-.05c.67-.03.92.18.96.86l.29,6.29-5.93-8.46-4.66.27.08,1.6.89-.05c.67-.03.92.18.96.86l.35,7.82c.03.64-.2.91-.87.96l-.87.05.07,1.56,5.38-.3-.07-1.56-.87.05c-.67.03-.92-.2-.96-.84l-.29-6.49,6.09,8.62,2.72-.15-.47-10.29c-.03-.67.2-.91.87-.96l.64-.07h.72c.67-.03.91.18.94.86l.17,7.82c0,.66-.22.91-.89.92l-.89.03.03,1.56,6.24-.18-.03-1.56h-.72c-.67.03-.92-.2-.94-.86l-.05-2.07,1.58-1.55,1.92,3.06c.13.27.42.59.42.91,0,.25-.18.37-.62.37h-.64l.03,1.66,8.37-.18.35-1.03c.97.97,2.32,1.43,3.63,1.41,2.99,0,4.64-1.56,4.64-4.34,0-5.33-7.55-3.08-7.56-5.88"></path><path class="st0" d="M84.15,115.33l-1.53-.03c-.15-2.17-1.4-3.53-3.23-3.58-2.02-.03-3.26,1.78-3.33,4.91-.07,3.08,1.08,4.79,3.21,4.84,1.31.03,2.32-.66,2.34-1.58v-1.03c.03-.67-.2-.91-.87-.92h-.94l.03-1.61,6.22.13-.03,1.6c-1.4-.03-1.65-.02-1.66.86l-.07,4.19-1.61-.03-.34-1.14c-1.16,1.08-2.15,1.48-3.63,1.45-3.48-.08-5.75-2.81-5.68-6.82.07-4.14,2.52-6.84,6.14-6.76,1.24.03,2.29.47,3.36,1.41l.37-1.06,1.34.03-.08,5.16h0v-.02Z"></path><path class="st0" d="M115.95,112.39l-.13,1.6.79.08c.67.07.89.32.84.99l-.5,6.27-4.82-9.31-4.54-.47h0l-4.74-.4h0l-4.44-.25-.07,1.65.87.07c.49.03.69.24.67.64,0,.18-.07.4-.25.86l-2.5,6.27-1.93-6.86c-.07-.24-.15-.5-.15-.72.02-.32.2-.42.79-.4l.81.05.07-1.65-6.35-.37h.05l-4.64-.13-.08,1.66h.67c.52.03.69.22.67.72l-.15,5.95c-.02.5-.2.69-.72.67h-.67l-.03,1.18,4.74.15.03-1.19h-.55c-.52-.03-.69-.24-.67-.72l.15-5.97c0-.5.2-.67.72-.67h.55c1.11.08,1.28.2,1.71,1.58l3.03,9.85,2.54.15,3.65-8.94c.44-1.13.4-1.97,2-1.88v-.07h.08c.52.05.69.24.64.74l-.37,5.93c-.03.5-.22.67-.74.62l-.67-.05-.07,1.19,4.74.37.07-1.19-.54-.03c-.52-.03-.69-.25-.66-.74l.37-5.93c.03-.5.24-.67.74-.62l.39.03h0l.87.08c.67.07.89.32.84.99l-.62,7.78c-.07.64-.3.87-.97.81l-.89-.08-.12,1.56,5.35.54.13-1.56-.87-.08c-.67-.07-.89-.35-.84-.99l.52-6.47,4.94,9.51,2.72.29.82-10.25c.05-.67.3-.87.97-.81l.66.07.13-1.58-5.04-.52h0l.02.03-.02-.03Z"></path><path class="st0" d="M48.61,136.79c.02.67.27.89.96.86l1.09-.05.05,1.63-6.74.27-.05-1.61.91-.03c.69-.03.94-.3.91-.96l-.25-8c-.02-.69-.27-.91-.96-.89l-.91.03-.05-1.63,7.63-.3c2.64-.1,4.05,1.13,4.12,3.56.08,2.44-1.31,3.7-4.24,3.8l-2.59.1.1,3.19h0l.02.03h0ZM49.89,131.84c1.71-.07,2.49-.71,2.44-2.08-.05-1.45-.77-1.98-2.72-1.9l-1.29.05.13,3.98,1.45-.07h0v.02h0Z"></path><path class="st0" d="M60.52,125.78c2.52-.05,4.25,1.73,4.29,4.39.03,2.94-1.51,4.71-4.24,4.76-2.57.05-4.22-1.68-4.25-4.45-.03-2.84,1.58-4.62,4.2-4.69M60.57,133.8c1.4-.03,2.19-1.26,2.15-3.43-.03-2.22-.84-3.51-2.19-3.48-1.4.02-2.2,1.31-2.17,3.46.03,2.2.84,3.46,2.2,3.45"></path><path class="st0" d="M84.1,126.19h0l-5.31-.15v1.63h.79c.69.03.94.27.92.96l-.08,6.44-5.55-9.09-4.77-.08h0l-4.69-.08-.03,1.56h.67c.52.02.69.2.69.71l-.08,5.97c0,.5-.18.69-.71.67h-.67v1.18l4.72.08v-1.19h-.54c-.52-.02-.69-.22-.69-.71l.08-5.97c0-.52.18-.69.71-.67h.5l.91.08c.69,0,.94.25.92.94l-.1,8c0,.67-.25.92-.96.91h-.91v1.6l5.48.1v-1.61l-.89-.02c-.69,0-.94-.29-.92-.94l.08-6.66,5.7,9.3,2.79.05.15-10.56c0-.69.25-.91.96-.91l.71.03-.13,3.55,1.58.07c.2-2.42.45-3.43,2.69-3.35l-.3,8.88c-.03.67-.29.89-.97.86l-1.14-.05-.07,1.63,6.99.32.07-1.63-1.11-.05c-.69-.03-.92-.29-.91-.94l.32-8.88h.49c1.34.07,2,1.13,1.93,3.18,0,.07,0,.18-.03.4l1.6.07.18-5.14-11.06-.49h0v.02-.02Z"></path><rect class="st0" x="57.31" y="136.04" width="6.45" height="1.31"></rect><path class="st0" d="M135.62,118.62l-1.98-.22c.07-3.21-.96-4.79-3.38-5.16-2.67-.4-5.28,2.22-5.85,6.79-.55,4.45.37,7.06,3.19,7.48,1.73.25,4.03-.57,4.17-1.92l.24-1.51c.08-.97-.08-1.21-1.08-1.29l-1.46-.1.24-2.1,7.98.74-.24,2.07c-1.85-.27-2.19-.03-2.3,1.26l-.62,5.85-2.12-.1-.29-1.66c-1.66,1.4-3.01,1.73-5.01,1.53-5.01-.52-7.68-5.13-6.74-10.96,1.09-6.71,4.94-9.18,9.75-8.56,1.31.17,2.79.72,3.95,2.39l.69-1.45,1.7.22-.86,6.74h0l.02-.03h0Z"></path><path class="st0" d="M78.52,16.72c2.22-.89,2.5-.91,4.4-.35,1.92.54,2.62.76,4.69-.74.64-.47,1.11-.91,1.11-.91v-.03l.03-.07-.52-.72c-.59.32-1.55.54-2.42.47-1.51-.1-2.37-1.36-5.7-1.36-3.7,0-3.8,1.08-9.26.07l-.12,5.61c5.75-.96,3.16-.13,7.78-1.98"></path><path class="st0" d="M102.24,101.51c-4.27-.52-8.56-.96-12.86-1.28l-3.41-29.17c4.37-.79,3.8-1.04,4.17-2.25.18-.18.42-.29.67-.44.32-.2.52-.64.59-.96h0c.2-1.09-.59-1.85-1.56-2.37l.07-1.97c1.38-.34,3.48-3.03-4.07-5.4l-.3-8.59c1.01-.39,2.35-1.08,2.79-2.07.52-1.03-.13-3.03-.91-3.95-.91-1.06-1.56-.3-3.65-.92-5.03-1.55-1.8-10.34-12.25-12.96-.02-4.17-.12-5.04-.67-5.98l-.1-3.23.12-5.61.08-1.83c.67-1.28.47-2.27-.91-2.19h0c-1.18.13-1.46,1.09-.76,2.07v10.71c-.86.67-.61,1.71-.71,6.15-7.33,1.21-7.36,4.71-9.18,9.09-2.02,4.81-6.4,4.25-7.01,4.52h0c-.72.35-1.08,1.88-1.08,2.72,0,1.11.47,1.71,1.28,2.44.92.79.84-1.71.76,9.6-1.51.4-5.4,1.4-5.41,2.74,0,.69.27,1.36.86,1.77l.08,2.99c-.66.45-1.06,1.03-1.06,1.8.05.72.74,1.33,1.28,1.85h0c.42.52,1.19,1.51,2.12,2.2h0c.35.25,1.06.39,1.5.47l-4.03,28.69c-4.81.34-9.6.81-14.39,1.4-.32.03-.57.34-.52.67.08.59.08,1.24.74,1.16,22.37-2.77,45.13-2.77,67.51,0,.67.08.67-.57.74-1.16.03-.32-.18-.62-.52-.67M60.4,99.54c-2.61.07-5.19.18-7.8.32l1.83-12.61,6.84,1.23-.89,11.06s.02,0,.02,0ZM61.86,80.16l-6.52.18,1.19-8.46c1.97.17,3.92.29,5.93.37l-.61,7.9h.01ZM65.95,72.38c4.22.1,5.93.07,7.88,0l.27,7.46-8.61.24.45-7.68v-.02h.01ZM64.37,99.46l.66-10.61h9.38l.4,10.66c-3.48-.08-6.96-.1-10.44-.05M77.93,72.09c1.55-.13,3.03-.29,4.35-.47l1.11,10.15-5.21-1.43-.25-8.25ZM78.77,99.63l-.35-10.78h5.68l1.28,11.11c-2.2-.13-4.4-.24-6.59-.32"></path><g><path class="st0" d="M142.4,112.42l-3.39-.26c-.08,0-.19,0-.28.07-.09.08-.11.19-.11.27l-.03.35c0,.08,0,.2.07.28.08.09.19.1.27.11l1.12.09-.29,3.88c-.02.25.09.38.34.39l.41.03s.04,0,.06,0c.07,0,.16-.01.23-.07.08-.07.1-.18.11-.27l.3-3.88,1.12.08c.08.01.2,0,.28-.07.08-.07.1-.18.11-.27l.03-.35c.02-.25-.09-.37-.34-.39Z"></path><path class="st0" d="M147.9,112.84l-.35-.03c-.23-.03-.33.03-.46.22l-1.56,2.36-1.2-2.57c-.09-.2-.18-.27-.43-.29l-.31-.02s-.04,0-.05,0c-.21,0-.32.11-.34.34l-.35,4.6c0,.09,0,.2.07.28.07.09.19.1.27.11l.35.03c.25.03.38-.09.39-.34l.16-2.18c.01-.17.02-.34.02-.51.06.15.12.3.2.46l.62,1.3c.09.19.18.25.37.26l.23.02c.22.03.31-.06.4-.2l.8-1.19c.11-.16.21-.32.31-.48-.04.2-.06.39-.07.57l-.17,2.18c-.02.25.09.37.34.39l.37.03s.04,0,.06,0c.22,0,.33-.11.35-.34l.35-4.6c.02-.25-.09-.37-.35-.39Z"></path></g></svg> 