<?xml version="1.0" encoding="UTF-8"?> <svg xmlns="http://www.w3.org/2000/svg" id="Layer_1" width="40.75" height="53.89" version="1.1" viewBox="0 0 40.75 53.89"><defs><style> .st0 { fill: #282828; } </style></defs><path class="st0" d="M26.22,4.08c1.26-.51,1.43-.52,2.52-.2,1.09.31,1.49.44,2.68-.42.36-.27.63-.52.63-.52v-.02l.02-.03-.3-.41c-.34.18-.88.31-1.38.27-.86-.06-1.35-.78-3.25-.78-2.11,0-2.17.61-5.28.03l-.07,3.2c3.27-.55,1.8-.07,4.43-1.13"></path><path class="st0" d="M39.74,52.41c-2.43-.3-4.88-.54-7.32-.73l-1.94-16.63c2.49-.46,2.17-.6,2.37-1.28.1-.11.24-.16.38-.25.18-.12.3-.36.33-.55h0c.11-.62-.34-1.06-.89-1.35l.04-1.12c.78-.19,1.98-1.73-2.31-3.08l-.17-4.89c.58-.22,1.34-.62,1.59-1.18.3-.58-.08-1.73-.52-2.25-.52-.6-.9-.17-2.08-.53-2.87-.87-1.03-5.89-6.98-7.39-.01-2.38-.07-2.87-.39-3.41l-.06-1.84.07-3.2.05-1.05c.38-.72.27-1.29-.52-1.25h0c-.68.07-.83.63-.43,1.18v6.1c-.49.38-.34.97-.4,3.51-4.18.69-4.2,2.68-5.23,5.18-1.15,2.74-3.65,2.43-3.99,2.58h0c-.41.2-.61,1.07-.61,1.55,0,.64.27.97.73,1.39.53.45.47-.98.43,5.47-.87.23-3.08.8-3.09,1.56,0,.4.15.77.49,1l.05,1.71c-.37.26-.6.58-.6,1.03.03.41.42.76.73,1.06h0c.24.3.68.87,1.21,1.26h0c.2.15.6.22.85.27l-2.3,16.35c-2.74.19-5.48.46-8.2.79-.19.02-.32.19-.3.38.04.34.05.71.43.66,12.75-1.58,25.72-1.58,38.48,0,.38.05.38-.32.43-.66.02-.19-.11-.36-.3-.38M15.9,51.29c-1.48.04-2.96.11-4.44.19l1.05-7.19,3.9.7-.5,6.3h-.01ZM16.74,40.24l-3.72.1.68-4.82c1.12.1,2.23.16,3.38.21l-.35,4.51h.01ZM19.06,35.8c2.41.06,3.38.04,4.49,0l.15,4.25-4.91.14.26-4.38h.01ZM18.15,51.24l.38-6.04h5.35l.23,6.07c-1.98-.05-3.97-.06-5.95-.03M25.89,35.65c.88-.08,1.72-.17,2.49-.27l.63,5.79-2.97-.82-.14-4.7h-.01ZM26.37,51.34l-.2-6.14h3.24l.72,6.33c-1.25-.08-2.51-.14-3.76-.19"></path><g><path class="st0" d="M36.21,47.41c0-.06,0-.16-.05-.23-.06-.07-.15-.09-.22-.1l-2.45-.24c-.07,0-.16,0-.23.05-.08.06-.09.15-.1.22l-.02.25c0,.06,0,.16.05.23.06.07.15.09.22.1l.78.08-.27,2.77c-.02.2.07.31.27.33l.3.03s.03,0,.05,0c.06,0,.12-.01.18-.06.07-.06.09-.15.09-.22l.27-2.77.78.07c.21.02.31-.07.33-.27l.02-.25Z"></path><path class="st0" d="M39.92,47.47l-.25-.02c-.18-.02-.26.02-.37.17l-1.13,1.63-.81-1.82c-.07-.16-.15-.22-.34-.23l-.23-.02c-.21-.02-.31.07-.33.27l-.32,3.32c-.02.2.07.31.27.33l.25.02c.06,0,.16,0,.23-.05.08-.06.09-.15.1-.22l.15-1.57c0-.07.01-.13.02-.2.02.06.05.12.08.18l.43.95c.07.15.14.2.29.21l.16.02c.17.02.25-.05.33-.16l.59-.85c.05-.07.09-.13.13-.19-.01.08-.02.16-.03.23l-.15,1.58c-.02.2.07.31.27.33l.26.02s.04,0,.05,0c.06,0,.13-.01.18-.06.07-.06.09-.15.1-.22l.32-3.32c.02-.2-.08-.31-.28-.33Z"></path></g></svg> 