<?xml version="1.0" encoding="UTF-8"?> <svg xmlns="http://www.w3.org/2000/svg" xmlns:xlink="http://www.w3.org/1999/xlink" id="Layer_1" width="85.34" height="89.48" version="1.1" viewBox="0 0 85.34 89.48"><defs><style> .st0 { fill: none; } .st1 { stroke: #000; stroke-miterlimit: 10; stroke-width: .15px; } .st2 { fill: #58595b; } .st3 { fill: #181616; } .st4 { clip-path: url(#clippath-1); } .st5 { fill: #ef4136; } .st6 { fill: #253d1e; } .st7 { clip-path: url(#clippath); } </style><clipPath id="clippath"><rect class="st0" x="-12.4" y="-11.35" width="107.56" height="107.56"></rect></clipPath><clipPath id="clippath-1"><rect class="st0" x="-12.4" y="-11.35" width="107.56" height="107.56"></rect></clipPath></defs><g id="TGP-Full-Logo_x5F_Color"><g class="st7"><g class="st4"><g><path class="st5" d="M46.39,12.28c1.25-.5,1.41-.51,2.48-.2,1.08.31,1.48.43,2.64-.41.36-.26.62-.51.62-.51v-.02l.02-.03-.29-.4c-.33.18-.87.3-1.37.27-.85-.06-1.33-.77-3.21-.77-2.09,0-2.14.6-5.21.03l-.07,3.16c3.23-.54,1.78-.07,4.37-1.12"></path><path class="st3" d="M59.74,60c-2.4-.3-4.82-.54-7.23-.72l-1.92-16.42c2.46-.45,2.14-.59,2.34-1.27.1-.1.24-.15.37-.25.18-.11.3-.35.33-.54,0-.06.02-.13.02-.19,0-.52-.41-.89-.9-1.14l.04-1.11c.77-.19,1.96-1.71-2.28-3.04l-.17-4.83c.57-.22,1.32-.61,1.57-1.17.29-.58-.08-1.71-.51-2.22-.51-.6-.89-.17-2.05-.52-2.83-.86-1.01-5.82-6.89-7.3,0-2.35-.07-2.83-.38-3.37l-.06-1.82.07-3.16.05-1.03c.37-.71.27-1.27-.52-1.23-.42.04-.64.28-.64.59,0,.18.07.37.22.57v6.03c-.49.37-.34.96-.4,3.47-4.13.68-4.15,2.65-5.17,5.12-1.13,2.71-3.61,2.4-3.94,2.55h0c-.4.2-.6,1.06-.6,1.53,0,.63.26.96.72,1.37.52.45.47-.96.42,5.4-.86.22-3.04.79-3.05,1.54,0,.39.15.76.49.99l.04,1.69c-.37.25-.59.57-.59,1.01.03.41.42.75.72,1.04h0c.24.3.67.86,1.19,1.24h0c.2.14.6.22.84.26l-2.27,16.15c-2.71.19-5.41.45-8.1.79-.18.02-.32.19-.29.37.04.34.04.7.42.65,12.59-1.56,25.4-1.56,37.99,0,.38.05.38-.32.42-.65.02-.18-.11-.35-.29-.37M43.91,47.79l-4.85.13.26-4.33c2.38.06,3.34.04,4.44,0,0,0,.15,4.2.15,4.2ZM36.19,58.88c-1.46.04-2.93.1-4.39.19l1.03-7.1,3.85.69-.5,6.22h.01ZM37.02,47.98l-3.67.1.67-4.76c1.11.1,2.2.16,3.34.2l-.34,4.45h0ZM38.42,58.84l.37-5.97h5.28l.22,6c-1.96-.04-3.92-.06-5.87-.03M46.06,43.44c.87-.07,1.7-.16,2.46-.26l.62,5.72-2.93-.81-.14-4.64h0ZM46.53,58.94l-.19-6.07h3.2l.71,6.25c-1.24-.08-2.48-.14-3.71-.18"></path><path class="st2" d="M50.62,39.15v-.31c.27,0,.61-.04.89-.09v.57c-.37-.08-.69-.14-.89-.17"></path><path class="st2" d="M32.21,36.34c0,.46,0,.89,0,1.36-.33-.04-.68-.11-1.3-.34v-.45c.16-.11.55-.33,1.31-.57"></path><path class="st2" d="M30.9,39.29v-.83c.25.06.55.12.84.15h0c.16.02.31.04.46.04v.38c-.28.04-.77.11-1.29.25"></path><path class="st2" d="M50.53,36.23c.36.11.79.28,1.02.56l-.02.95c-.13.06-.29.12-.43.15h0c-.18.04-.41.05-.53.04l-.05-1.7h0Z"></path><path class="st2" d="M38.85,35.88v-.5c-.91.04-1.72.09-2.44.16v.38c1.15-.1,2.04-.06,2.45-.04"></path><path class="st2" d="M35.22,35.68c-1,.13-1.78.29-2.4.45v.5c.43-.14,1.32-.39,2.4-.56v-.38h0Z"></path><path class="st2" d="M32.84,37.39c.02.87.04,1.47.09,1.5.07.04.31,0,.65-.04l-.02-1.62c-.28.07-.53.12-.71.17"></path><path class="st2" d="M36.43,36.64l.03,1.83c.38-.03.74-.06,1.06-.08l-.07-1.79c-.34,0-.7,0-1.02.04"></path><path class="st2" d="M38.1,36.61l.11,1.74c.17,0,.31-.02.42-.02.14,0,.21-.69.22-1.68-.2,0-.46-.03-.75-.04"></path><path class="st2" d="M34.1,37.1l.12,1.64c.35-.06.72-.12,1.08-.16l-.05-1.74c-.37.08-.77.17-1.15.26"></path><path class="st2" d="M29.73,36.79c.26.04,1.91-.85,5.12-1.34,4.04-.63,7.86-.31,8.12-.5.18-.15.08-.28-.08-.32-.33-.1-6.7.08-8.48.5-2.26.54-4.41,1.09-4.63,1.26-.22.18-.3.37-.04.4"></path><path class="st2" d="M30.37,38.15l-.03-.84s-.02-.22-.22-.22c-.09,0-.22.06-.23.18,0-.05.07.66.12,2.06.01.24.38.21.37-.02v-1.17h-.01Z"></path><path class="st2" d="M41.04,19.94c.21,0,.16.83.05,1.56-.11.72.1,1.04.1,2.02s.57,1.97-.42,2.02c-.99.05-2.24.31-2.19,0,.05-.31.42-.57.57-1.14s.37-1.45.42-2.23.63-1.66.99-2.02c0,0,.26-.21.47-.21"></path><path class="st2" d="M35.98,25.2c.41-.55.86-2.27,1.45-3.51s2.73-1.58,2.73-1.58c-1.97,2.3-.67,5.32-2.97,6.03-.45.14-2.07.45-2.25.31-.17-.14.62-.69,1.04-1.24"></path><path class="st2" d="M31.87,27.84c.1-.2.79-.31,3.62-.89,2.83-.59,8.01-.37,8.25-.34.24.04.11.24-.07.27-.17.04-5.59-.03-7.98.35-3.87.62-4.26,1.48-3.83.62"></path><path class="st2" d="M38.83,34.09c-.08-2.51-.28-5.37-.34-5.44-.09-.12-1.27-.13-3.02.18-1.77.32-2.66.83-2.66,1.01,0,.13,0,2.71,0,5.01.34-.05,2.4-.55,6.01-.76"></path><path class="st2" d="M33.3,48.6c.14-.03,10.88-.32,10.97-.12.1.2,0,.23-.11.29s-10.56.17-10.73.13c-.17-.04-.27-.28-.13-.3"></path><path class="st2" d="M34.73,49.15c.29,0,.52.81-.05,1.25-.43.34-1.35,0-1.25-.19.1-.2.83.16,1.06-.05.48-.43-.05-1.01.24-1.01"></path><path class="st2" d="M36.85,49.24c.29,0,.52.81-.05,1.25-.43.33-1.35,0-1.25-.19s.83.16,1.06-.05c.48-.43-.05-1.01.24-1.01"></path><path class="st2" d="M39.08,49.24c.29,0,.52.81-.05,1.25-.43.34-1.35,0-1.25-.19s.83.16,1.06-.05c.48-.44-.05-1.01.24-1.01"></path><path class="st2" d="M41.37,49.29c.29,0,.52.81-.05,1.25-.43.34-1.35,0-1.25-.19.1-.2.83.15,1.06-.05.48-.43-.05-1.01.24-1.01"></path><path class="st2" d="M43.6,49.19c.29,0,.52.81-.05,1.25-.43.34-1.35,0-1.25-.19s.83.16,1.06-.05c.48-.43-.05-1.01.24-1.01"></path><path class="st2" d="M32.83,43.26c-.18-.02-.34-.04-.49-.06l-2.17,15.98c.16,0,.33-.02.49-.03l2.17-15.88h0Z"></path><path class="st6" d="M1.77,69.71l-.36-4.07,16.13-1.76c-.1,1.53-2.74,1.64-2.74,1.64-.93.1-7.6.8-7.74.81l.75,8.3c.04.53.25.69.8.63l.88-.1.11,1.29-5.53.63-.11-1.29.9-.1c.54-.06.72-.28.67-.8l-.75-8.3c-1.33.15-1.71.65-1.79,1.71,0,0-.02,1.36-1.25,1.4"></path><path class="st6" d="M10.89,70.83l.16,1.85c.03.36.18.49.54.44l.4-.04.07.88-3.48.38-.07-.88.49-.06c.38-.04.5-.2.47-.56l-.38-4.37c-.04-.38-.17-.49-.54-.44l-.5.04-.07-.89,3.48-.38.07.9-.4.04c-.38.04-.5.18-.47.57l.13,1.55,2.52-.28-.13-1.55c-.04-.38-.18-.49-.54-.46l-.4.04-.07-.89,3.48-.38.07.9-.49.06c-.38.04-.5.18-.47.57l.38,4.37c.03.37.17.49.54.46l.49-.04.07.88-3.48.38-.07-.88.4-.04c.38-.04.5-.2.47-.56l-.16-1.85-2.52.28h0v-.04s.01,0,.01,0Z"></path><path class="st6" d="M16.95,69.87c-.06.24-.2.58-.18.84.01.16.08.18.4.16l.21-.02.04.67-2.1.18-.04-.67c.38-.04.57-.08.7-.52.07-.25.17-.48.25-.74l1.01-3.6,1.07-.08,1.72,3.7c.28.58.36.8.95.75l.04.67-2.62.22-.04-.67.25-.02c.28-.02.4-.1.4-.25-.02-.22-.21-.57-.3-.78l-1.76.15h0v-.02h0ZM17.61,67.36l-.48,1.8,1.26-.1-.79-1.7h0Z"></path><path class="st6" d="M37.03,66.9c0-.57.53-.96,1.29-.96.6,0,1.2.35,1.52.86.19.31.24.51.29,1.03h.89v-2.59h-.75l-.14.48c-.5-.5-1.08-.71-1.86-.71-1.58,0-2.58.93-2.57,2.41,0,1.43.79,1.82,1.88,2.08l.96.25c1.14.28,1.3.42,1.3.95s-.49.93-1.21.93-1.37-.33-1.69-.8c-.18-.26-.22-.4-.38-1.08h-.9v1.76c-.46-.01-1.17-.08-1.45-.43-.07-.1-.14-.18-.2-.26l-1.72-2.79,1.04-1.06c.61-.61.86-.79,1.61-.79l-.02-.93-3.38.1.02.93.58-.02c.21,0,.28.04.29.16,0,.1-.06.21-.18.33l-2.1,2.02-.04-1.97c0-.38.12-.51.5-.52h.4l-.02-.9-3.49.11h-.01l-2.76.16.04.9.44-.03c.38-.02.52.1.54.48l.16,3.53-3.33-4.75-2.62.15.04.9.5-.03c.38-.02.52.1.54.48l.2,4.39c.02.36-.11.51-.49.54l-.49.03.04.88,3.02-.17-.04-.88-.49.03c-.38.02-.52-.11-.54-.47l-.16-3.65,3.42,4.84,1.53-.08-.26-5.78c-.02-.38.11-.51.49-.54l.36-.04h.4c.38-.02.51.1.53.48l.1,4.39c0,.37-.12.51-.5.52l-.5.02.02.88,3.51-.1-.02-.88h-.4c-.38.02-.52-.11-.53-.48l-.03-1.16.89-.87,1.08,1.72c.07.15.24.33.24.51,0,.14-.1.21-.35.21h-.36l.02.93,4.7-.1.2-.58c.54.54,1.3.8,2.04.79,1.68,0,2.61-.88,2.61-2.44,0-2.99-4.24-1.73-4.25-3.3"></path><path class="st6" d="M47.82,68.19l-.86-.02c-.08-1.22-.79-1.98-1.81-2.01-1.13-.02-1.83,1-1.87,2.76-.04,1.73.61,2.69,1.8,2.72.74.02,1.3-.37,1.31-.89v-.58c.02-.38-.11-.51-.49-.52h-.53l.02-.9,3.49.07-.02.9c-.79-.02-.93-.01-.93.48l-.04,2.35-.9-.02-.19-.64c-.65.61-1.21.83-2.04.81-1.95-.04-3.23-1.58-3.19-3.83.04-2.33,1.42-3.84,3.45-3.8.7.02,1.29.26,1.89.79l.21-.6.75.02-.04,2.9h0Z"></path><path class="st6" d="M65.68,66.54l-.07.9.44.04c.38.04.5.18.47.56l-.28,3.52-2.71-5.23-2.55-.26h0l-2.66-.22h0l-2.49-.14-.04.93.49.04c.28.02.39.13.38.36,0,.1-.04.22-.14.48l-1.4,3.52-1.08-3.85c-.04-.13-.08-.28-.08-.4.01-.18.11-.24.44-.22l.46.03.04-.93-3.57-.21h.03l-2.61-.07-.04.93h.38c.29.02.39.12.38.4l-.08,3.34c-.01.28-.11.39-.4.38h-.38l-.02.66,2.66.08.02-.67h-.31c-.29-.02-.39-.13-.38-.4l.08-3.35c0-.28.11-.38.4-.38h.31c.62.04.72.11.96.89l1.7,5.53,1.43.08,2.05-5.02c.25-.63.22-1.11,1.12-1.06v-.04h.04c.29.03.39.13.36.42l-.21,3.33c-.02.28-.12.38-.42.35l-.38-.03-.04.67,2.66.21.04-.67-.3-.02c-.29-.02-.39-.14-.37-.42l.21-3.33c.02-.28.13-.38.42-.35l.22.02h0l.49.04c.38.04.5.18.47.56l-.35,4.37c-.04.36-.17.49-.54.46l-.5-.04-.07.88,3.01.3.07-.88-.49-.04c-.38-.04-.5-.2-.47-.56l.29-3.63,2.78,5.34,1.53.16.46-5.76c.03-.38.17-.49.54-.46l.37.04.07-.89-2.83-.29h0v.02s0-.02,0-.02Z"></path><path class="st6" d="M27.85,80.25c.01.38.15.5.54.48l.61-.03.03.92-3.79.15-.03-.9.51-.02c.39-.02.53-.17.51-.54l-.14-4.49c-.01-.39-.15-.51-.54-.5l-.51.02-.03-.92,4.29-.17c1.48-.06,2.28.63,2.31,2,.04,1.37-.74,2.08-2.38,2.13l-1.45.06.06,1.79h0v.02s.01,0,.01,0ZM28.57,77.47c.96-.04,1.4-.4,1.37-1.17-.03-.81-.43-1.11-1.53-1.07l-.72.03.07,2.24.81-.04h0s0,.01,0,.01Z"></path><path class="st6" d="M34.54,74.06c1.42-.03,2.39.97,2.41,2.47.02,1.65-.85,2.65-2.38,2.67-1.44.03-2.37-.94-2.39-2.5-.02-1.6.89-2.6,2.36-2.63M34.57,78.57c.79-.02,1.23-.71,1.21-1.93-.02-1.25-.47-1.97-1.23-1.95-.79.01-1.24.74-1.22,1.94.02,1.24.47,1.94,1.24,1.94"></path><path class="st6" d="M47.79,74.29h0l-2.98-.08v.92h.44c.39.02.53.15.52.54l-.04,3.62-3.12-5.11-2.68-.04h0l-2.63-.04-.02.88h.38c.29.01.39.11.39.4l-.04,3.35c0,.28-.1.39-.4.38h-.38v.66l2.65.04v-.67h-.3c-.29-.01-.39-.12-.39-.4l.04-3.35c0-.29.1-.39.4-.38h.28l.51.04c.39,0,.53.14.52.53l-.06,4.49c0,.38-.14.52-.54.51h-.51v.9l3.08.06v-.9h-.5c-.39-.01-.53-.17-.52-.54l.04-3.74,3.2,5.22,1.57.03.08-5.93c0-.39.14-.51.54-.51l.4.02-.07,1.99.89.04c.11-1.36.25-1.93,1.51-1.88l-.17,4.99c-.02.38-.16.5-.54.48l-.64-.03-.04.92,3.93.18.04-.92-.62-.03c-.39-.02-.52-.16-.51-.53l.18-4.99h.28c.75.04,1.12.63,1.08,1.79,0,.04,0,.1-.02.22l.9.04.1-2.89-6.21-.28h0s0,0,0,0Z"></path><rect class="st6" x="32.74" y="79.82" width="3.62" height=".74"></rect><path class="st6" d="M76.73,70.04l-1.11-.12c.04-1.8-.54-2.69-1.9-2.9-1.5-.22-2.97,1.25-3.29,3.81-.31,2.5.21,3.97,1.79,4.2.97.14,2.26-.32,2.34-1.08l.13-.85c.04-.54-.04-.68-.61-.72l-.82-.06.13-1.18,4.48.42-.13,1.16c-1.04-.15-1.23-.02-1.29.71l-.35,3.29-1.19-.06-.16-.93c-.93.79-1.69.97-2.81.86-2.81-.29-4.31-2.88-3.79-6.16.61-3.77,2.78-5.16,5.48-4.81.74.1,1.57.4,2.22,1.34l.39-.81.95.12-.48,3.79h0v-.02s.01,0,.01,0Z"></path></g></g></g></g><g><path class="st1" d="M78.79,69.28l.19-2.44-.76-.06c-.11,0-.15-.05-.14-.16l.02-.21c0-.11.05-.15.16-.14l2.06.16c.11,0,.15.05.14.16l-.02.21c0,.11-.05.15-.16.14l-.76-.06-.19,2.44c0,.11-.05.15-.16.14l-.25-.02c-.11,0-.15-.05-.14-.16"></path><path class="st1" d="M80.67,69.42l.21-2.8c0-.11.05-.15.16-.14h.19c.13.02.16.05.2.14l.79,1.69,1.03-1.55c.06-.09.09-.11.21-.1l.21.02c.11,0,.15.05.14.16l-.21,2.8c0,.11-.05.15-.16.14l-.22-.02c-.11,0-.15-.05-.14-.16l.1-1.33c.02-.25.07-.53.17-.86h-.03c-.14.32-.26.53-.42.76l-.49.73c-.05.07-.09.1-.18.09h-.14c-.09-.02-.12-.04-.16-.13l-.38-.79c-.13-.26-.19-.46-.28-.82h-.03c.04.35.05.61.03.88l-.1,1.33c0,.11-.05.15-.16.14l-.21-.02c-.11,0-.15-.05-.14-.16"></path></g></svg> 